<?xml version="1.0" encoding="utf-8"?>
<!-- Generator: Adobe Illustrator 18.0.0, SVG Export Plug-In . SVG Version: 6.00 Build 0)  -->
<!DOCTYPE svg PUBLIC "-//W3C//DTD SVG 1.1//EN" "http://www.w3.org/Graphics/SVG/1.1/DTD/svg11.dtd">
<svg version="1.1" xmlns="http://www.w3.org/2000/svg" xmlns:xlink="http://www.w3.org/1999/xlink" x="0px" y="0px"
	 viewBox="0 0 1600 900" enable-background="new 0 0 1600 900" xml:space="preserve">
<g id="Background">
	<g>
		<rect x="0" y="0.2" fill="#80DEEA" width="1600" height="899.8"/>
	</g>
</g>
<g id="Artwork">
	<g>
		<path fill="none" stroke="#FAFAFA" stroke-width="15" stroke-miterlimit="10" d="M228.7,668.6h224.8c6.4,0,11.5-5.2,11.5-11.5
			v-176c0-6.4,5.2-11.5,11.5-11.5h185.3"/>
		<g>
			<g>
				<g>
					<circle fill="#FAFAFA" cx="228.7" cy="670.2" r="137.9"/>
				</g>
			</g>
		</g>
		<g>
			<rect x="147.9" y="676.5" fill="#80DEEA" width="40.2" height="40.6"/>
			<rect x="201.5" y="637.3" fill="#00BCD4" width="40.2" height="79.7"/>
			<rect x="255.1" y="598.2" fill="#00ACC1" width="40.2" height="118.8"/>
		</g>
		<path fill="none" stroke="#FAFAFA" stroke-width="15" stroke-miterlimit="10" d="M357.7,230.8h95.8c6.4,0,11.5,5.2,11.5,11.5v186
			c0,6.4,5.2,11.5,11.5,11.5h185.3"/>
		<g>
			<g>
				<g>
					<path fill="#F47C20" d="M185,194c20.3-24.1,56.4-27.2,80.5-6.9l52.6-62.5c-58.7-49.4-146.3-41.9-195.6,16.8L185,194z"/>
				</g>
				<g>
					<path fill="#FAFAFA" d="M185,194c-20.3,24.1-17.2,60.2,6.9,80.5c11.9,10,26.7,14.3,41.1,13.3l6.1,81.5
						c-34.9,2.6-70.9-7.9-99.8-32.2c-58.7-49.4-66.2-137-16.8-195.6L185,194z"/>
				</g>
				<g>
					<path fill="#FAA629" d="M265.5,187.1l52.6-62.5c21.4,18,36,41.1,43.5,66.1l-78.2,23.6C280.3,204,274.3,194.5,265.5,187.1z"/>
				</g>
				<g>
					<path fill="#FFD600" d="M272.4,267.6c4.9-5.9,8.5-12.4,10.7-19.3l77.8,25c-5.4,16.7-14,32.7-26,46.9
						c-25,29.7-59.9,46.3-95.8,49l-6.1-81.5C247.8,286.7,262.1,279.8,272.4,267.6z"/>
				</g>
				<g>
					<path fill="#FAA629" d="M283.4,214.3l78.2-23.6c8.1,26.8,8,55.7-0.7,82.6l-77.8-25C286.7,237.2,286.7,225.3,283.4,214.3z"/>
				</g>
			</g>
			<circle fill="#80DEEA" cx="228.7" cy="230.8" r="96"/>
		</g>
		<polygon opacity="0.54" fill="#FAFAFA" points="1277,279.2 918.1,453.6 1179.8,624.8 1315.2,399.7 		"/>
		<g>
			<path fill="#00ACC1" d="M949.5,386h-299v-88.7c0-9.5,7.7-17.2,17.2-17.2h264.6c9.5,0,17.2,7.7,17.2,17.2V386z"/>
			<rect x="650.5" y="397.1" fill="#00ACC1" width="299" height="105.9"/>
			<path fill="#00ACC1" d="M932.3,620.1H667.7c-9.5,0-17.2-7.7-17.2-17.2v-88.7h299v88.7C949.5,612.4,941.8,620.1,932.3,620.1z"/>
			<circle fill="#FFFFFF" cx="687" cy="333.1" r="11.2"/>
			<path fill="#80DEEA" d="M887.1,338.5H729c-3,0-5.4-2.4-5.4-5.4v0c0-3,2.4-5.4,5.4-5.4h158.1c3,0,5.4,2.4,5.4,5.4v0
				C892.5,336.1,890.1,338.5,887.1,338.5z"/>
			<circle fill="#FFFFFF" cx="687" cy="450.1" r="11.2"/>
			<path fill="#80DEEA" d="M887.1,455.5H729c-3,0-5.4-2.4-5.4-5.4l0,0c0-3,2.4-5.4,5.4-5.4h158.1c3,0,5.4,2.4,5.4,5.4l0,0
				C892.5,453.1,890.1,455.5,887.1,455.5z"/>
			<circle fill="#FFFFFF" cx="687" cy="567.2" r="11.2"/>
			<path fill="#80DEEA" d="M887.1,572.6H729c-3,0-5.4-2.4-5.4-5.4v0c0-3,2.4-5.4,5.4-5.4h158.1c3,0,5.4,2.4,5.4,5.4v0
				C892.5,570.2,890.1,572.6,887.1,572.6z"/>
		</g>
		<g>
			<g>
				<path fill="#FAFAFA" d="M1296.4,422.9c7.4,4.2,14.1,9.2,20.1,14.7c30.6-27,73.9-36.3,113.3-23.4
					c10.7-48.3-10.4-100.1-55.5-126.1c-55.7-32.2-127-13.1-159.2,42.7c-15,25.9-18.8,55.2-13.1,82.3
					C1232.3,403.2,1266.6,405.7,1296.4,422.9z"/>
			</g>
			<g>
				<path fill="#00ACC1" d="M1279.7,499.8c-7.5-2.5-14.9-5.7-22.1-9.9c-29.8-17.2-49.2-45.7-55.8-76.9
					c-26.4,8.6-49.8,26.6-64.7,52.5c-32.2,55.7-13.1,127,42.7,159.2c44.5,25.7,98.8,18.7,135.3-13.5
					C1284.1,583.1,1270.8,540.3,1279.7,499.8z"/>
			</g>
			<g>
				<path fill="#80DEEA" d="M1257.7,490c7.1,4.1,14.5,7.4,22.1,9.9c2.5-11.3,6.8-22.5,12.9-33.1c6.5-11.3,14.6-21,23.9-29.2
					c-6-5.5-12.8-10.4-20.1-14.7c-29.8-17.2-64.1-19.7-94.5-9.8C1208.5,444.3,1227.8,472.7,1257.7,490z"/>
			</g>
			<g>
				<path fill="#FAA629" d="M1451.8,424.1c-7.1-4.1-14.5-7.4-22.1-9.9c-2.5,11.3-6.8,22.5-12.9,33.1c-15,25.9-38.4,43.9-64.7,52.5
					c5.7,27.1,1.9,56.4-13.1,82.3c-6.5,11.3-14.6,21-23.9,29.2c6,5.5,12.8,10.4,20.1,14.7c55.7,32.2,127,13.1,159.2-42.7
					S1507.6,456.3,1451.8,424.1z"/>
			</g>
			<g>
				<path fill="#FFD600" d="M1316.5,437.6c18.5,16.8,30.7,38.7,35.6,62.2c26.4-8.6,49.8-26.6,64.7-52.5
					c6.1-10.6,10.4-21.7,12.9-33.1C1390.4,401.3,1347.2,410.6,1316.5,437.6z"/>
			</g>
			<g>
				<path fill="#F47C20" d="M1339.1,582.1c15-25.9,18.8-55.2,13.1-82.3c-23.1,7.5-48.5,7.9-72.4,0c-9,40.5,4.4,83.3,35.4,111.5
					C1324.4,603.1,1332.5,593.4,1339.1,582.1z"/>
			</g>
			<g>
				<path fill="#00ACC1" d="M1316.5,437.6c-9.2,8.2-17.4,17.9-23.9,29.2c-6.1,10.6-10.4,21.7-12.9,33.1c23.9,7.9,49.3,7.5,72.4,0
					C1347.2,476.3,1335,454.3,1316.5,437.6z"/>
			</g>
		</g>
		<line fill="none" stroke="#FAFAFA" stroke-width="15" stroke-miterlimit="10" x1="228.7" y1="230.8" x2="325.3" y2="230.8"/>
		<circle fill="#FAFAFA" cx="228.7" cy="230.8" r="18.3"/>
	</g>
</g>
</svg>
